<?xml version="1.0" encoding="UTF-8" standalone="no"?>
<!-- Created with Inkscape (http://www.inkscape.org/) -->

<svg
   xmlns:dc="http://purl.org/dc/elements/1.1/"
   xmlns:cc="http://creativecommons.org/ns#"
   xmlns:rdf="http://www.w3.org/1999/02/22-rdf-syntax-ns#"
   xmlns:svg="http://www.w3.org/2000/svg"
   xmlns="http://www.w3.org/2000/svg"
   xmlns:xlink="http://www.w3.org/1999/xlink"
   xmlns:sodipodi="http://sodipodi.sourceforge.net/DTD/sodipodi-0.dtd"
   xmlns:inkscape="http://www.inkscape.org/namespaces/inkscape"
   width="48"
   height="48"
   viewBox="0 0 12.7 12.7"
   version="1.1"
   id="svg8"
   inkscape:version="0.92.4 (5da689c313, 2019-01-14)"
   sodipodi:docname="medium-gear.svg"
   inkscape:export-filename="I:\Unity Projects\GlobalGameJam2020\Assets\Sprites\icons\small-gear-icon.png"
   inkscape:export-xdpi="256"
   inkscape:export-ydpi="256"
   enable-background="new">
  <defs
     id="defs2">
    <linearGradient
       inkscape:collect="always"
       id="linearGradient4549">
      <stop
         style="stop-color:#ffffff;stop-opacity:1;"
         offset="0"
         id="stop4545" />
      <stop
         style="stop-color:#ffffff;stop-opacity:0;"
         offset="1"
         id="stop4547" />
    </linearGradient>
    <radialGradient
       inkscape:collect="always"
       xlink:href="#linearGradient4549"
       id="radialGradient4553"
       cx="6.1019535"
       cy="289.724"
       fx="6.1019535"
       fy="289.724"
       r="6.0854168"
       gradientUnits="userSpaceOnUse"
       gradientTransform="matrix(0.49048913,0,0,0.49864131,2.0920191,143.99062)" />
  </defs>
  <sodipodi:namedview
     id="base"
     pagecolor="#ffffff"
     bordercolor="#666666"
     borderopacity="1.0"
     inkscape:pageopacity="0.0"
     inkscape:pageshadow="2"
     inkscape:zoom="16"
     inkscape:cx="38.306103"
     inkscape:cy="20.698283"
     inkscape:document-units="mm"
     inkscape:current-layer="layer2"
     showgrid="false"
     units="px"
     inkscape:window-width="2560"
     inkscape:window-height="1387"
     inkscape:window-x="2552"
     inkscape:window-y="-8"
     inkscape:window-maximized="1"
     inkscape:pagecheckerboard="true" />
  <metadata
     id="metadata5">
    <rdf:RDF>
      <cc:Work
         rdf:about="">
        <dc:format>image/svg+xml</dc:format>
        <dc:type
           rdf:resource="http://purl.org/dc/dcmitype/StillImage" />
        <dc:title></dc:title>
      </cc:Work>
    </rdf:RDF>
  </metadata>
  <g
     inkscape:groupmode="layer"
     id="layer2"
     inkscape:label="Medium Gear"
     style="display:none">
    <g
       id="g4704"
       inkscape:label="Gear10"
       transform="translate(6.35,6.35)">
      <path
         id="path4700"
         style="fill:none;stroke:#000000;stroke-width:0.26458332"
         d="m 3.31908,-0.57652 0.57956,-0.10067 0.26049,0.01845 0.88798,0.41135 V 0.24739 L 4.15913,0.65874 3.89864,0.67719 3.31908,0.57652 3.02407,1.48449 3.55211,1.7437 3.75201,1.91174 4.22861,2.76648 3.93779,3.16676 2.97761,2.97761 2.75602,2.83943 2.34632,2.41732 1.57396,2.97848 1.8488,3.49857 1.91174,3.75201 1.79492,4.72364 1.32437,4.87653 0.65874,4.15913 0.5607,3.9171 0.47735,3.33479 h -0.9547 L -0.5607,3.9171 -0.65874,4.15913 -1.32437,4.87653 -1.79492,4.72364 -1.91174,3.75201 -1.8488,3.49857 -1.57396,2.97848 -2.34632,2.41732 -2.75602,2.83943 -2.97761,2.97761 -3.93779,3.16676 -4.22861,2.76648 -3.75201,1.91174 -3.55211,1.7437 -3.02407,1.48449 -3.31908,0.57652 -3.89864,0.67719 -4.15913,0.65874 -5.04711,0.24739 v -0.49478 l 0.88798,-0.41135 0.26049,-0.01845 0.57956,0.10067 0.29501,-0.90797 -0.52804,-0.25921 -0.1999,-0.16804 -0.4766,-0.85474 0.29082,-0.40028 0.96018,0.18915 0.22159,0.13818 0.4097,0.42211 0.77236,-0.56116 -0.27484,-0.52009 -0.06294,-0.25344 0.11682,-0.97163 0.47055,-0.15289 0.66563,0.7174 0.09804,0.24203 0.08335,0.58231 h 0.9547 l 0.08335,-0.58231 0.09804,-0.24203 0.66563,-0.7174 0.47055,0.15289 0.11682,0.97163 -0.06294,0.25344 -0.27484,0.52009 0.77236,0.56116 0.4097,-0.42211 0.22159,-0.13818 0.96018,-0.18915 0.29082,0.40028 -0.4766,0.85474 -0.1999,0.16804 -0.52804,0.25921 z"
         inkscape:connector-curvature="0" />
      <circle
         id="path4702"
         style="fill:none;stroke:#000000;stroke-width:0.26458332"
         cx="0"
         cy="0"
         r="1.3229166" />
    </g>
    <path
       style="fill:#1a1a1a;fill-opacity:1;stroke-width:0.0625"
       d="m 18.274853,41.662469 c -0.309375,-0.104701 -0.568894,-0.195251 -0.576707,-0.201223 -0.0078,-0.006 -0.102336,-0.726341 -0.21005,-1.600819 -0.191491,-1.554621 -0.193563,-1.599594 -0.09323,-2.023389 0.06789,-0.28675 0.297606,-0.804951 0.678801,-1.53125 0.316901,-0.603802 0.576185,-1.130408 0.576185,-1.170237 0,-0.05746 -2.777097,-2.125618 -3.419172,-2.546322 -0.152225,-0.09974 -0.157414,-0.09575 -1.054403,0.812037 -1.306712,1.322436 -1.251886,1.293683 -3.212556,1.684791 l -1.6236299,0.323877 -0.3621854,-0.49445 -0.3621854,-0.49445 0.7913996,-1.419033 c 0.5584776,-1.001389 0.8670141,-1.487923 1.0483161,-1.653098 0.145612,-0.132662 0.791681,-0.505662 1.491291,-0.860981 0.678906,-0.344804 1.234122,-0.633225 1.233813,-0.640936 -0.0023,-0.05843 -1.362105,-4.17877 -1.387392,-4.204055 -0.01789,-0.01789 -0.605886,0.0673 -1.30666,0.189305 C 8.7117443,26.141223 8.763184,26.148945 6.924867,25.29765 L 5.4623525,24.620383 5.4447006,24.006752 5.4270488,23.393121 6.9447007,22.692086 c 1.8199003,-0.840649 1.7548201,-0.831373 3.6031303,-0.513536 0.718124,0.12349 1.221054,0.183385 1.252317,0.149141 0.02873,-0.03147 0.341613,-0.957224 0.695285,-2.057224 0.353673,-1.1 0.655457,-2.034676 0.670633,-2.077058 0.01738,-0.04853 -0.420159,-0.29524 -1.181811,-0.666381 -0.835043,-0.406903 -1.301081,-0.673245 -1.505579,-0.860442 -0.228577,-0.209238 -0.469895,-0.584635 -1.0572918,-1.644734 -0.4186133,-0.755488 -0.761115,-1.402372 -0.761115,-1.437521 0,-0.105431 0.6552767,-0.970114 0.7351757,-0.970114 0.040691,0 0.7708061,0.139999 1.6224781,0.311108 1.925263,0.386804 1.938761,0.393943 3.140321,1.660859 0.471048,0.496668 0.882925,0.903033 0.915283,0.903033 0.06685,0 3.607576,-2.561015 3.607576,-2.609365 0,-0.01728 -0.269108,-0.54115 -0.598017,-1.164153 -0.84796,-1.606161 -0.839183,-1.554452 -0.599638,-3.5331475 0.10573,-0.8733536 0.214549,-1.6081423 0.24182,-1.6328639 0.02727,-0.024722 0.286938,-0.1228356 0.577037,-0.2180311 l 0.527453,-0.1730826 0.441297,0.4640362 c 1.524116,1.6026495 1.788625,1.9163604 1.950556,2.3133851 0.111599,0.2736218 0.217318,0.7756708 0.340231,1.6157218 0.09808,0.670313 0.179096,1.253906 0.180041,1.296875 0.0013,0.06102 0.494303,0.07813 2.25172,0.07813 1.2375,0 2.25,-0.01073 2.25,-0.02384 0,-0.01311 0.08316,-0.596705 0.184803,-1.296875 0.262632,-1.8091645 0.2555,-1.7947512 1.607394,-3.2482985 0.604118,-0.6495432 1.113291,-1.1809875 1.131497,-1.1809875 0.01821,0 0.280515,0.074252 0.58291,0.1650035 0.486799,0.1460934 0.553372,0.1836979 0.580896,0.328125 0.0171,0.089717 0.107745,0.8205375 0.201437,1.6240458 0.218158,1.8709207 0.225928,1.8275677 -0.610515,3.4063857 -0.343779,0.648896 -0.601904,1.201422 -0.573612,1.227836 0.162237,0.151468 3.527138,2.561104 3.576416,2.561104 0.03269,0 0.448257,-0.408207 0.92348,-0.907126 1.211922,-1.27235 1.22778,-1.280683 3.163435,-1.662361 0.852166,-0.168032 1.575278,-0.305513 1.606915,-0.305513 0.03164,0 0.216779,0.215345 0.411424,0.478544 0.3414,0.461643 0.350613,0.484269 0.26085,0.640625 -0.05118,0.08915 -0.408528,0.731426 -0.794112,1.427292 -0.861652,1.555025 -0.899283,1.590969 -2.503218,2.390912 -0.635938,0.317165 -1.161777,0.581376 -1.168532,0.587136 -0.0068,0.0058 0.297038,0.95885 0.675095,2.117981 0.545199,1.671591 0.709334,2.107496 0.793532,2.107443 0.05839,-3.6e-5 0.598342,-0.08644 1.199905,-0.192007 0.649936,-0.114056 1.289984,-0.189499 1.577358,-0.185924 0.479545,0.006 0.496233,0.01187 1.986443,0.702697 l 1.502835,0.69668 -0.01769,0.623695 -0.01769,0.623695 -1.445463,0.6687 c -1.825794,0.844649 -1.787569,0.838864 -3.522407,0.532968 -0.687593,-0.12124 -1.27658,-0.220437 -1.308861,-0.220437 -0.05255,0 -0.302898,0.735849 -1.164976,3.424262 l -0.266316,0.830511 1.229011,0.617627 c 0.855596,0.42997 1.315368,0.699848 1.513235,0.888238 0.207132,0.197211 0.492577,0.647354 1.052379,1.659581 l 0.768154,1.388969 -0.355521,0.486031 c -0.195537,0.267317 -0.387857,0.480627 -0.427379,0.474021 -0.03952,-0.0066 -0.760919,-0.144532 -1.603106,-0.306504 -1.472012,-0.283102 -1.546987,-0.304576 -1.938013,-0.555078 -0.253901,-0.162657 -0.723649,-0.593713 -1.25,-1.147041 -0.463781,-0.487551 -0.874077,-0.874745 -0.911771,-0.860429 -0.05092,0.01934 -3.44814,2.462273 -3.579078,2.573708 -0.01244,0.01058 0.249023,0.530908 0.581022,1.156274 0.852608,1.606008 0.851887,1.602115 0.637998,3.443409 -0.23136,1.991696 -0.15049,1.771639 -0.716728,1.950289 -0.263824,0.08324 -0.522664,0.16113 -0.575199,0.173093 -0.05883,0.0134 -0.520348,-0.434362 -1.201551,-1.165729 -1.335455,-1.433799 -1.351304,-1.464442 -1.578127,-3.051203 -0.08442,-0.590578 -0.169408,-1.165185 -0.188857,-1.276904 l -0.03536,-0.203125 h -2.247167 c -1.235943,0 -2.247168,0.01073 -2.247168,0.02384 0,0.01311 -0.08315,0.596705 -0.184772,1.296875 -0.249932,1.72197 -0.274158,1.775261 -1.320255,2.904204 -0.461298,0.497831 -0.965286,1.042072 -1.119973,1.209424 l -0.28125,0.304276 z m 6.83076,-12.272007 c 1.694994,-0.347467 3.13663,-1.497534 3.884076,-3.098525 0.3315,-0.710059 0.438959,-1.147769 0.483936,-1.971209 0.0602,-1.102083 -0.144504,-2.043185 -0.64081,-2.946102 -1.777623,-3.233988 -6.116464,-3.862468 -8.716367,-1.262564 -1.501406,1.501405 -2.00344,3.666538 -1.31525,5.672299 0.287022,0.836541 0.650683,1.410303 1.317405,2.078522 0.80121,0.803011 1.70441,1.309182 2.71875,1.523643 0.589186,0.124572 1.67063,0.126448 2.26826,0.0039 z"
       id="path4721"
       inkscape:connector-curvature="0"
       transform="scale(0.26458333)" />
    <path
       style="fill:#ffffff;fill-opacity:1;stroke-width:0.0625"
       d="m 28.818066,4.9399006 c -0.93305,1.0223883 -1.935183,1.9890294 -2.792603,3.076416 -0.511371,0.82503 -0.55315,1.8469055 -0.719849,2.7578124 -0.866053,0.06971 -1.747305,0.02794 -2.620117,0.04004 C 22.540508,9.6593419 22.438981,8.3554791 21.550488,7.4954426 20.763521,6.6374208 19.982033,5.7717543 19.162059,4.94576 18.346896,5.1502139 17.546138,5.4573422 16.737377,5.7022297 16.518128,6.6980225 16.472306,7.756816 16.323114,8.7762825 c -0.0624,0.5739155 -0.217991,1.1547971 0.02424,1.7094225 0.179039,0.754082 0.696848,1.404323 0.915654,2.118991 C 16.58723,13.112661 15.899712,13.6047 15.217231,14.103597 14.484963,13.433051 13.82861,12.585362 12.875557,12.220906 11.5663,11.907021 10.23774,11.645565 8.9055859,11.457235 8.357319,12.050992 7.8890234,12.736769 7.4350048,13.408773 c -0.00197,0.427015 0.3471146,0.781877 0.5050049,1.164062 0.5457478,0.902811 0.9571173,1.902417 1.6324463,2.719238 0.629416,0.654743 1.493499,0.979448 2.288941,1.376343 -0.249438,0.837337 -0.516023,1.670545 -0.79773,2.49646 -0.93192,-0.159003 -1.8725447,-0.369668 -2.8222977,-0.222378 -0.9030055,0.319689 -1.7640573,0.798608 -2.6510437,1.179037 -0.3947126,0.203496 -0.8435165,0.344676 -1.2051255,0.58631 0.018439,0.870097 -0.042062,1.763164 0.024902,2.619141 1.2690607,0.567268 2.5192818,1.207617 3.7999851,1.72975 0.8994882,0.101615 1.7953428,-0.01664 2.6769368,-0.191883 0.254157,-0.08139 0.237929,0.337238 0.339363,0.471044 0.22145,0.651566 0.434564,1.312566 0.630371,1.975586 -1.050009,0.536837 -2.2828756,1.024115 -2.8221441,2.161377 -0.5511344,0.995593 -1.150977,1.981657 -1.6376954,3.003173 0.4400612,0.717958 0.9219234,1.42322 1.4519044,2.075562 1.3850961,-0.168455 2.7508471,-0.507975 4.1228031,-0.765747 0.883287,-0.440004 1.511952,-1.209136 2.221924,-1.865357 0.710552,0.475757 1.419312,0.979004 2.107177,1.49585 -0.427431,0.9299 -1.035435,1.836715 -1.090743,2.882264 0.173878,1.31677 0.29035,2.64422 0.519332,3.952086 0.756682,0.323182 1.564688,0.572938 2.365357,0.776612 0.56404,-0.373167 0.974543,-0.954846 1.457727,-1.426246 0.654006,-0.772086 1.537584,-1.437147 1.793494,-2.465722 0.200753,-0.63878 0.239495,-1.31253 0.338135,-1.971069 0.873412,0 1.746825,0 2.620238,0 0.155467,1.137232 0.243105,2.409105 1.093995,3.278198 0.807078,0.878979 1.591735,1.791453 2.473022,2.594361 0.78443,-0.209956 1.586852,-0.428651 2.327759,-0.77002 0.230179,-0.191786 0.118232,-0.57164 0.209406,-0.830754 0.131688,-1.112915 0.30497,-2.2324 0.379583,-3.344936 -0.156513,-0.967615 -0.658942,-1.814972 -1.095825,-2.67453 0.698152,-0.49895 1.381465,-1.019622 2.096069,-1.494995 0.77699,0.635142 1.405995,1.547133 2.39399,1.872706 1.271356,0.299505 2.566331,0.530367 3.845146,0.77329 0.434723,-0.278876 0.657657,-0.803728 0.98938,-1.189697 0.174963,-0.309754 0.496523,-0.585326 0.581055,-0.92688 -0.64612,-1.215322 -1.274227,-2.449314 -2.035278,-3.59729 -0.640261,-0.74426 -1.600214,-1.089189 -2.440919,-1.546021 0.271777,-0.817168 0.532487,-1.638126 0.818237,-2.450561 0.984581,0.118762 1.986852,0.358043 2.975242,0.175284 1.231112,-0.573076 2.462225,-1.146153 3.693338,-1.71923 0.06735,-0.845284 0.0095,-1.727136 0.02893,-2.586425 -1.211602,-0.636577 -2.509202,-1.174683 -3.753906,-1.773316 -0.916766,-0.139375 -1.834519,-0.0023 -2.734009,0.180054 -0.353131,0.170664 -0.281487,-0.353249 -0.408524,-0.547911 -0.204104,-0.62959 -0.406953,-1.259585 -0.610153,-1.889467 1.036819,-0.540082 2.279528,-1.006016 2.816651,-2.134521 0.545604,-1.012464 1.186496,-1.985463 1.62146,-3.05127 -0.05651,-0.351434 -0.385811,-0.617639 -0.561981,-0.921684 -0.31844,-0.378949 -0.572678,-0.856425 -0.970368,-1.147774 -1.33121,0.245381 -2.675405,0.457178 -3.982788,0.810547 -0.922634,0.374624 -1.570089,1.172286 -2.258057,1.855591 -0.70335,-0.51063 -1.406678,-1.021292 -2.109985,-1.531982 C 31.148696,11.676668 31.723915,10.7649 31.793216,9.7370347 31.620219,8.4299706 31.517236,7.1050283 31.295116,5.8090413 30.860028,5.476718 30.265895,5.4211257 29.765808,5.215083 29.450788,5.1363416 29.134101,4.9685757 28.818066,4.9399006 Z M 23.990307,19.605184 c 1.889117,-0.08648 3.676607,1.273961 4.22086,3.059887 0.674899,1.967195 -0.298663,4.336659 -2.184776,5.258709 -1.649715,0.902435 -3.827527,0.555761 -5.142896,-0.794914 -1.242787,-1.198814 -1.619771,-3.131165 -1.007934,-4.733399 0.647698,-1.636005 2.331487,-2.874758 4.114746,-2.790283 z"
       id="path4753"
       inkscape:connector-curvature="0"
       transform="scale(0.26458333)" />
  </g>
  <g
     inkscape:groupmode="layer"
     id="layer4"
     inkscape:label="Large Gear"
     style="display:none">
    <g
       id="g4677"
       inkscape:label="Gear12"
       transform="translate(6.35,6.35)">
      <path
         id="path4673"
         style="fill:none;stroke:#000000;stroke-width:0.26458332"
         d="m 4.16629,-0.6118 0.53175,-0.07809 0.3119,0.03032 0.87963,0.3982 V 0.26137 L 5.00994,0.65957 4.69804,0.68989 4.16629,0.6118 3.91402,1.55331 4.41357,1.75156 4.66852,1.93376 5.2312,2.71843 4.96983,3.17114 4.00895,3.07617 3.72368,2.94648 3.30221,2.61298 2.61298,3.30221 2.94648,3.72368 3.07617,4.00895 3.17114,4.96983 2.71843,5.2312 1.93376,4.66852 1.75156,4.41357 1.55331,3.91402 0.6118,4.16629 0.68989,4.69804 0.65957,5.00994 0.26137,5.88957 H -0.26137 L -0.65957,5.00994 -0.68989,4.69804 -0.6118,4.16629 -1.55331,3.91402 -1.75156,4.41357 -1.93376,4.66852 -2.71843,5.2312 -3.17114,4.96983 -3.07617,4.00895 -2.94648,3.72368 -2.61298,3.30221 -3.30221,2.61298 -3.72368,2.94648 -4.00895,3.07617 -4.96983,3.17114 -5.2312,2.71843 -4.66852,1.93376 -4.41357,1.75156 -3.91402,1.55331 -4.16629,0.6118 -4.69804,0.68989 -5.00994,0.65957 -5.88957,0.26137 v -0.52274 l 0.87963,-0.3982 0.3119,-0.03032 0.53175,0.07809 0.25227,-0.94151 -0.49955,-0.19825 -0.25495,-0.1822 -0.56268,-0.78467 0.26137,-0.45271 0.96088,0.09497 0.28527,0.12969 0.42147,0.3335 0.68923,-0.68923 -0.3335,-0.42147 -0.12969,-0.28527 -0.09497,-0.96088 0.45271,-0.26137 0.78467,0.56268 0.1822,0.25495 0.19825,0.49955 0.94151,-0.25227 -0.07809,-0.53175 0.03032,-0.3119 0.3982,-0.87963 h 0.52274 l 0.3982,0.87963 0.03032,0.3119 -0.07809,0.53175 0.94151,0.25227 0.19825,-0.49955 0.1822,-0.25495 0.78467,-0.56268 0.45271,0.26137 -0.09497,0.96088 -0.12969,0.28527 -0.3335,0.42147 0.68923,0.68923 0.42147,-0.3335 0.28527,-0.12969 0.96088,-0.09497 0.26137,0.45271 -0.56268,0.78467 -0.25495,0.1822 -0.49955,0.19825 z"
         inkscape:connector-curvature="0" />
      <circle
         id="path4675"
         style="fill:none;stroke:#000000;stroke-width:0.26458332"
         cx="0"
         cy="0"
         r="1.3229166" />
    </g>
    <path
       style="fill:#1a1a1a;fill-opacity:1;stroke-width:0.0625"
       d="m 22.663391,44.254842 c -0.65497,-1.448794 -0.671962,-1.497858 -0.708858,-2.046875 -0.02963,-0.440905 -0.0013,-0.8034 0.131019,-1.676907 0.09285,-0.612923 0.155284,-1.127943 0.138739,-1.144488 -0.01655,-0.01655 -0.965325,-0.280896 -2.108399,-0.587447 -1.143074,-0.30655 -2.125413,-0.572312 -2.182974,-0.590582 -0.08553,-0.02714 -0.187579,0.175439 -0.558219,1.108103 -0.634377,1.596321 -0.754848,1.749889 -2.173028,2.770015 -0.612875,0.440854 -1.19994,0.865392 -1.30459,0.943419 L 13.70681,43.171945 13.147081,42.85391 c -0.30785,-0.174919 -0.567312,-0.324397 -0.57658,-0.332174 -0.0093,-0.0078 0.0549,-0.74024 0.142595,-1.627698 0.157677,-1.595653 0.162093,-1.619163 0.398024,-2.118565 0.159929,-0.338527 0.477083,-0.803759 0.962068,-1.411256 l 0.723488,-0.90625 -1.604662,-1.609979 c -0.902925,-0.905916 -1.639359,-1.596702 -1.684004,-1.579619 -0.04364,0.0167 -0.471741,0.341866 -0.951339,0.722596 -0.5702291,0.452676 -1.0382553,0.769051 -1.3524178,0.914203 -0.4613507,0.213158 -0.5420363,0.228183 -2.0327519,0.378554 -0.8537828,0.08612 -1.5908321,0.141813 -1.6378875,0.123756 -0.084639,-0.03248 -0.6650113,-0.98609 -0.6650113,-1.092681 0,-0.03038 0.4087093,-0.629351 0.9082427,-1.331037 1.1395641,-1.600726 1.2360331,-1.680077 2.8105073,-2.311793 0.61875,-0.248257 1.1457907,-0.469382 1.1712013,-0.491389 0.041796,-0.0362 -1.0733144,-4.33361 -1.1421044,-4.401442 -0.016003,-0.01578 -0.5607852,0.04941 -1.2106265,0.144869 -1.7389346,0.255441 -1.8268825,0.24102 -3.6960934,-0.606047 l -1.466127,-0.664403 0.00133,-0.660294 0.00133,-0.660294 1.4917982,-0.669111 c 1.438186,-0.645063 1.5116987,-0.670548 2.0455473,-0.709126 0.4368197,-0.03157 0.789477,-0.0046 1.6700977,0.127762 0.6139917,0.09228 1.1370565,0.144198 1.1623659,0.115376 0.060412,-0.06879 1.2029469,-4.341573 1.169795,-4.374725 -0.014016,-0.01402 -0.5198962,-0.220005 -1.12418,-0.457755 C 7.0659955,16.737578 6.9359955,16.631946 5.7861828,15.028887 5.2815137,14.325281 4.8686025,13.721786 4.8686025,13.687786 c 0,-0.034 0.1435749,-0.305759 0.3190553,-0.603907 L 5.506713,12.54179 5.7970328,12.57833 c 0.1596759,0.02009 0.8809447,0.09496 1.6028197,0.166359 1.6926682,0.167426 1.8389925,0.22685 3.1959425,1.297921 l 0.978231,0.77214 1.620868,-1.620868 1.620867,-1.620867 -0.755333,-0.953335 C 13.568173,9.9983833 13.230556,9.5050126 13.091086,9.2031483 12.887029,8.7614951 12.869497,8.6652039 12.714046,7.1323991 L 12.551015,5.524842 12.679753,5.4277356 c 0.07081,-0.053409 0.332531,-0.2062436 0.581615,-0.3396335 l 0.452878,-0.2425269 1.311553,0.9395399 c 1.61711,1.1584277 1.68144,1.2375892 2.337116,2.8759769 0.251061,0.6273438 0.469673,1.140625 0.485806,1.140625 0.09461,0 4.310032,-1.1494119 4.351247,-1.1864469 0.02756,-0.024768 -0.02505,-0.5484187 -0.116913,-1.163668 -0.130199,-0.8719834 -0.158534,-1.2405076 -0.128506,-1.6713616 0.03727,-0.5347775 0.06035,-0.6012177 0.710662,-2.0459642 l 0.672142,-1.4932377 0.660936,-9.108e-4 0.660937,-9.108e-4 0.667874,1.484375 c 0.839267,1.8653033 0.850272,1.9335549 0.594049,3.684253 -0.09454,0.6459871 -0.152074,1.1912983 -0.127846,1.2118026 0.02423,0.020505 0.49405,0.1563832 1.04405,0.3019519 0.55,0.1455694 1.516881,0.4051713 2.148625,0.5768938 0.631744,0.1717225 1.169168,0.2891043 1.194276,0.2608481 0.02511,-0.028256 0.23835,-0.5384731 0.47387,-1.1338163 0.623699,-1.5765732 0.717362,-1.6913016 2.315855,-2.8367233 0.709667,-0.5085216 1.310997,-0.9245848 1.336287,-0.9245848 0.09645,0 1.075339,0.58616 1.104115,0.661149 0.01663,0.043327 -0.04092,0.7797451 -0.127873,1.6364838 -0.15092,1.4869466 -0.168079,1.579601 -0.377744,2.0396791 -0.149187,0.3273694 -0.45084,0.7726719 -0.940401,1.3882271 -0.396419,0.498441 -0.72076,0.926024 -0.72076,0.950184 0,0.02416 0.724218,0.765891 1.609375,1.648289 l 1.609375,1.60436 0.90625,-0.722765 c 0.617636,-0.492586 1.067639,-0.798179 1.413014,-0.959568 0.499497,-0.233408 0.529917,-0.239086 2.121479,-0.395983 0.888094,-0.08755 1.618483,-0.152908 1.623087,-0.145243 0.14148,0.23554 0.59283,1.047804 0.605745,1.090116 0.0099,0.0323 -0.400679,0.642996 -0.912305,1.357103 -1.171567,1.635225 -1.274506,1.718929 -2.897895,2.356379 -0.627344,0.246337 -1.140017,0.450688 -1.139274,0.454112 0.06421,0.295917 1.182374,4.367036 1.205905,4.390567 0.01918,0.01918 0.549929,-0.04147 1.179436,-0.134775 1.764996,-0.261618 1.846781,-0.248723 3.691118,0.581993 l 1.484061,0.668442 3.12e-4,0.664959 3.13e-4,0.66496 -1.466961,0.664664 c -1.854954,0.840458 -1.928975,0.852344 -3.686442,0.591928 -0.65156,-0.09655 -1.194704,-0.165487 -1.206988,-0.153203 -0.02947,0.02947 -1.139612,4.158655 -1.157234,4.304343 -0.01102,0.09108 0.194638,0.19509 1.073863,0.54313 1.638315,0.648524 1.74571,0.735485 2.914552,2.359999 l 0.956337,1.329166 -0.322938,0.560728 c -0.235724,0.409295 -0.356697,0.561032 -0.447939,0.56185 -0.06875,6.25e-4 -0.80035,-0.06772 -1.625776,-0.151865 -1.423506,-0.14511 -1.525472,-0.164241 -1.980424,-0.371569 -0.32455,-0.147902 -0.773439,-0.452087 -1.388218,-0.940711 -0.49971,-0.397171 -0.930602,-0.722129 -0.957532,-0.722129 -0.06549,0 -3.204296,3.142894 -3.204296,3.208471 0,0.02822 0.326974,0.46396 0.726609,0.968299 0.478717,0.604141 0.799847,1.0769 0.941279,1.38573 0.205463,0.448645 0.221479,0.537954 0.37341,2.082273 0.08731,0.887438 0.148887,1.621645 0.136845,1.631571 -0.01204,0.0099 -0.267531,0.161969 -0.567754,0.33787 l -0.545861,0.319823 -1.314952,-0.944639 c -1.634587,-1.17426 -1.713426,-1.27103 -2.366801,-2.905085 l -0.453603,-1.134438 -0.198961,0.05363 c -0.109429,0.02949 -1.096108,0.293387 -2.19262,0.586429 -1.096511,0.293041 -2.002878,0.542023 -2.014148,0.553292 -0.01127,0.01127 0.05823,0.555656 0.154443,1.209749 0.25781,1.752686 0.244889,1.832511 -0.596906,3.687556 l -0.662289,1.459472 h -0.663923 -0.663923 z m 2.442222,-14.86438 c 1.694994,-0.347467 3.13663,-1.497534 3.884076,-3.098525 0.3315,-0.710059 0.438959,-1.147769 0.483936,-1.971209 0.0602,-1.102083 -0.144504,-2.043185 -0.64081,-2.946102 -1.777623,-3.233988 -6.116464,-3.862468 -8.716367,-1.262564 -1.501406,1.501405 -2.00344,3.666538 -1.31525,5.672299 0.287022,0.836541 0.650683,1.410303 1.317405,2.078522 0.80121,0.803011 1.70441,1.309182 2.71875,1.523643 0.589186,0.124572 1.67063,0.126448 2.26826,0.0039 z"
       id="path4723"
       inkscape:connector-curvature="0"
       transform="scale(0.26458333)" />
    <path
       style="fill:#ffffff;fill-opacity:1;stroke-width:0.0625"
       d="m 23.995434,1.2041828 c -0.458778,0.025905 -0.942078,-0.028616 -1.386109,0.045654 -0.546181,1.2425408 -1.152084,2.4684847 -1.661362,3.7212604 -0.116002,0.8122488 -0.145299,1.6362533 0.03465,2.4420695 0.01333,0.1922075 0.129428,0.4933113 -0.172094,0.4885431 -0.77284,0.2170697 -1.554934,0.4283341 -2.34304,0.5655347 C 18.030846,7.4163326 17.592806,6.2611601 16.601542,5.6008779 15.671208,4.9108038 14.722258,4.2461585 13.783519,3.5675861 c -0.779876,0.3942918 -1.570861,0.8502607 -2.297973,1.357666 -0.07324,0.4449936 0.05883,0.9313306 0.0672,1.3882915 0.09756,0.9078469 0.147262,1.8294384 0.286498,2.7274397 0.3267,0.9068206 0.891893,1.6905697 1.517395,2.4133217 -0.630461,0.633414 -1.260954,1.266796 -1.891479,1.900146 C 10.687233,12.71289 9.854235,12.070191 8.8703238,11.80256 7.5637882,11.696107 6.2529437,11.487946 4.945751,11.466634 c -0.5208157,0.71727 -0.9645502,1.503929 -1.3474122,2.303833 0.580501,0.92221 1.2738562,1.807228 1.9086144,2.707271 0.6298188,0.988435 1.7244401,1.523544 2.7904825,1.90955 0.3409937,0.05237 0.078539,0.399023 0.070359,0.612589 C 8.1970807,19.679249 8.0327569,20.361196 7.82661,21.030843 6.9796631,20.925565 6.1268465,20.749336 5.273039,20.919237 4.574705,20.961148 3.9923628,21.428903 3.3455235,21.659339 2.6451162,21.99774 1.8926646,22.2754 1.2248037,22.651815 c 0.00911,0.906576 -0.063496,1.836456 -0.00415,2.72876 1.2553069,0.550379 2.4939864,1.160421 3.7594487,1.674377 0.8104712,0.129409 1.6359098,0.117516 2.439313,-0.03277 0.1800157,-0.0081 0.4730225,-0.115056 0.4721369,0.157707 0.2192175,0.773115 0.4427256,1.557108 0.5726319,2.346802 -1.0287681,0.433903 -2.1534326,0.860456 -2.8187258,1.817871 -0.7091982,0.943722 -1.3831975,1.913166 -2.0760498,2.868896 0.367822,0.746061 0.8159734,1.488252 1.2650146,2.203125 0.1836538,0.323961 0.5896271,0.06293 0.8703741,0.09442 1.087671,-0.12378 2.1930788,-0.174688 3.2725256,-0.328605 0.83051,-0.31449 1.5916861,-0.775311 2.2636001,-1.354141 0.130222,-0.119595 0.275258,-0.240157 0.390009,-0.0136 0.592129,0.553784 1.154457,1.138217 1.72937,1.709595 -0.650266,0.772038 -1.258636,1.62648 -1.556285,2.59447 -0.109518,1.289552 -0.298128,2.578922 -0.350209,3.87013 0.225238,0.371652 0.716932,0.487305 1.053494,0.737051 0.436761,0.215185 0.849212,0.549832 1.327609,0.649301 1.110447,-0.80634 2.280636,-1.543121 3.320679,-2.440552 0.643954,-0.685377 0.96731,-1.58522 1.327148,-2.435424 0.858833,0.204251 1.712007,0.4274 2.561524,0.669799 -0.136483,0.859604 -0.285321,1.73021 -0.125371,2.599149 0.06519,0.668655 0.504735,1.236557 0.73063,1.86186 0.35313,0.733351 0.64653,1.520585 1.028774,2.224172 0.895746,-0.03132 1.815494,0.016 2.696655,-0.06311 0.552483,-1.25749 1.167021,-2.497948 1.681559,-3.765857 0.12086,-0.858687 0.129038,-1.729156 -0.0652,-2.578305 -0.204422,-0.475461 0.523075,-0.34484 0.800738,-0.506772 0.57689,-0.148128 1.152438,-0.319351 1.738177,-0.417498 0.430644,1.094576 0.922787,2.277295 1.956754,2.942832 0.908675,0.658354 1.811858,1.327767 2.74808,1.945717 0.789456,-0.372443 1.545785,-0.854439 2.297119,-1.309204 0.03662,-0.706175 -0.105453,-1.436096 -0.152023,-2.148732 -0.09941,-0.684947 -0.08179,-1.400647 -0.250741,-2.067351 -0.329399,-0.884651 -0.898538,-1.642842 -1.49665,-2.361676 0.627743,-0.631533 1.255551,-1.263003 1.883423,-1.894409 0.786388,0.650366 1.631328,1.297809 2.628024,1.566807 1.313029,0.114482 2.625168,0.307911 3.941556,0.349087 0.463308,-0.736367 0.944759,-1.486811 1.285644,-2.292115 -0.0097,-0.285129 -0.323989,-0.48648 -0.441916,-0.738208 -0.699825,-0.921078 -1.282606,-1.946537 -2.105933,-2.765484 -0.660641,-0.585833 -1.513687,-0.861769 -2.298587,-1.224457 0.17967,-0.851399 0.375707,-1.733191 0.663697,-2.536743 0.849461,0.06774 1.707507,0.252945 2.563422,0.09495 0.683133,-0.05133 1.256835,-0.508272 1.892265,-0.735943 0.720168,-0.348711 1.493843,-0.63543 2.180543,-1.022947 -0.0204,-0.896982 0.03999,-1.817876 -0.02954,-2.700317 -1.260812,-0.552002 -2.505119,-1.163223 -3.776043,-1.678962 -0.818392,-0.129934 -1.648879,-0.133229 -2.460643,0.04418 -0.189461,0.01085 -0.482673,0.16579 -0.451912,-0.167463 -0.211479,-0.777182 -0.422129,-1.557837 -0.603394,-2.343872 1.089793,-0.44424 2.287728,-0.902532 2.946599,-1.946514 0.647816,-0.907214 1.334759,-1.802978 1.93365,-2.735371 -0.300728,-0.773231 -0.761678,-1.483507 -1.204346,-2.18396 -0.203153,-0.345768 -0.656585,-0.07173 -0.962367,-0.111294 -1.097554,0.118683 -2.210793,0.184842 -3.297243,0.348861 -0.878,0.361765 -1.67521,0.884946 -2.391024,1.505841 -0.6076,-0.635083 -1.303301,-1.237419 -1.845703,-1.907836 0.537559,-0.707069 1.098144,-1.410232 1.419643,-2.2500074 C 36.306825,8.547232 36.258739,7.8280933 36.364667,7.1506577 36.42143,6.3989411 36.549657,5.631847 36.568066,4.8907063 35.779848,4.4606125 35.011151,3.9494827 34.211132,3.5685627 33.102436,4.3896504 31.936851,5.1420654 30.869335,6.0147297 30.236606,6.7177583 29.903671,7.6238695 29.520824,8.4654133 28.6752,8.306317 27.825479,8.0985164 27.008007,7.8241783 27.030058,6.9831408 27.257661,6.1355559 27.085568,5.2897076 26.8837,4.3010656 26.329098,3.4262671 25.958994,2.4959388 25.742822,2.0675025 25.592634,1.5820803 25.336742,1.1879475 c -0.447103,0.00541 -0.894206,0.010824 -1.341308,0.016235 z m -0.0051,18.4010012 c 1.889117,-0.08648 3.676607,1.273961 4.22086,3.059887 0.674899,1.967195 -0.298663,4.336659 -2.184776,5.258709 -1.649715,0.902435 -3.827527,0.555761 -5.142896,-0.794914 -1.242787,-1.198814 -1.619771,-3.131165 -1.007934,-4.733399 0.647698,-1.636005 2.331487,-2.874758 4.114746,-2.790283 z"
       id="path4751"
       inkscape:connector-curvature="0"
       transform="scale(0.26458333)" />
  </g>
  <g
     inkscape:groupmode="layer"
     id="layer3"
     inkscape:label="Small Gear"
     style="display:inline">
    <g
       id="g4642"
       inkscape:label="Gear6"
       transform="translate(6.35,6.35)">
      <path
         id="path4638"
         style="fill:none;stroke:#000000;stroke-width:0.26458332"
         d="M 1.62032,-0.46015 2.2839,-0.6486 2.44049,-0.65393 3.36296,-0.1979 V 0.1979 L 2.44049,0.65393 2.2839,0.6486 1.62032,0.46015 1.20866,1.17316 1.70366,1.65361 1.78657,1.78657 1.85287,2.81346 1.51009,3.01136 0.65393,2.44049 0.58024,2.30222 0.41166,1.63331 h -0.82332 l -0.16858,0.66891 -0.07369,0.13827 -0.85616,0.57087 -0.34278,-0.1979 0.0663,-1.02689 0.08291,-0.13296 0.495,-0.48045 L -1.62032,0.46015 -2.2839,0.6486 -2.44049,0.65393 -3.36296,0.1979 v -0.3958 l 0.92247,-0.45603 0.15659,0.00533 0.66358,0.18845 0.41166,-0.71301 -0.495,-0.48045 -0.08291,-0.13296 -0.0663,-1.02689 0.34278,-0.1979 0.85616,0.57087 0.07369,0.13827 0.16858,0.66891 h 0.82332 l 0.16858,-0.66891 0.07369,-0.13827 0.85616,-0.57087 0.34278,0.1979 -0.0663,1.02689 -0.08291,0.13296 -0.495,0.48045 z"
         inkscape:connector-curvature="0" />
      <circle
         id="path4640"
         style="fill:none;stroke:#000000;stroke-width:0.26458332"
         cx="0"
         cy="0"
         r="1.3229166" />
    </g>
    <path
       style="fill:#1a1a1a;fill-opacity:1;stroke-width:0.0625"
       d="m 17.910551,34.570956 c -0.422145,-0.258195 -0.401758,-0.08132 -0.256973,-2.229344 0.07358,-1.091625 0.122036,-1.484449 0.197662,-1.602395 0.0551,-0.08594 0.576784,-0.620312 1.159293,-1.1875 l 1.059105,-1.03125 -0.959892,-1.669937 c -0.527942,-0.918465 -0.996553,-1.670809 -1.04136,-1.671875 -0.04481,-0.0011 -0.669085,0.166812 -1.387283,0.373062 -0.740587,0.212679 -1.42922,0.375 -1.590909,0.375 -0.239344,0 -0.525707,-0.120388 -1.784591,-0.75025 l -1.4995,-0.75025 v -0.428656 -0.428655 l 1.536839,-0.758595 c 0.990541,-0.488937 1.607542,-0.758594 1.735741,-0.758594 0.109396,0 0.8311,0.179203 1.603786,0.398229 0.772686,0.219025 1.423519,0.380744 1.446297,0.359375 0.02278,-0.02137 0.470122,-0.781647 0.994101,-1.689506 l 0.952688,-1.650652 -1.075041,-1.029768 c -0.591271,-0.566373 -1.114483,-1.106045 -1.162692,-1.19927 -0.08905,-0.17221 -0.313269,-3.009224 -0.271024,-3.429292 0.01765,-0.175488 0.06972,-0.231556 0.368248,-0.396482 l 0.347692,-0.19209 1.416161,0.945474 c 0.778889,0.520011 1.462406,1.016052 1.518927,1.102313 0.05652,0.08626 0.241553,0.712269 0.411184,1.391129 0.169631,0.678859 0.336313,1.340158 0.370404,1.469552 l 0.06198,0.235261 1.946595,-0.01651 1.946596,-0.01651 0.352607,-1.40625 c 0.193935,-0.773437 0.40045,-1.497926 0.458923,-1.609975 0.0788,-0.151006 0.473056,-0.448574 1.523545,-1.149914 l 1.417232,-0.946189 0.335819,0.181164 c 0.184701,0.09964 0.357185,0.209289 0.383299,0.243664 0.02611,0.03438 -0.0031,0.830055 -0.06503,1.768177 -0.09868,1.49611 -0.12787,1.727253 -0.237548,1.881281 -0.06877,0.09658 -0.590044,0.627786 -1.158381,1.180455 l -1.033342,1.004851 0.946395,1.645118 c 0.520516,0.904815 0.963347,1.664601 0.984067,1.688414 0.02072,0.02381 0.669961,-0.137905 1.442757,-0.359375 0.772795,-0.221469 1.497213,-0.402671 1.609816,-0.402671 0.134292,0 0.7324,0.256866 1.73835,0.746559 l 1.533617,0.746559 -0.01843,0.453427 -0.01843,0.453428 -1.46875,0.73323 c -1.19307,0.595605 -1.521252,0.734034 -1.748464,0.737513 -0.166216,0.0025 -0.824243,-0.150933 -1.621702,-0.378245 -0.852292,-0.242944 -1.372111,-0.362678 -1.424539,-0.328125 -0.0454,0.02992 -0.504828,0.785654 -1.020944,1.679404 l -0.938393,1.625 1.060286,1.03125 c 0.583157,0.567188 1.105529,1.105411 1.160825,1.196053 0.07569,0.124065 0.122647,0.510299 0.189979,1.5625 0.04919,0.768733 0.102122,1.544008 0.117622,1.722832 l 0.02818,0.325135 -0.381541,0.214303 -0.38154,0.214301 -1.425594,-0.945686 c -1.23385,-0.818492 -1.441575,-0.979314 -1.544405,-1.195688 -0.06535,-0.1375 -0.26893,-0.862105 -0.452407,-1.610233 L 25.964871,29.675 l -1.966127,0.01648 -1.966126,0.01648 -0.354458,1.40625 c -0.194952,0.773438 -0.390072,1.481431 -0.4336,1.573319 -0.05255,0.110943 -0.566329,0.49178 -1.529351,1.133639 L 18.265,34.787745 Z m 7.195062,-5.180494 c 1.694994,-0.347467 3.13663,-1.497534 3.884076,-3.098525 0.3315,-0.710059 0.438959,-1.147769 0.483936,-1.971209 0.0602,-1.102083 -0.144504,-2.043185 -0.64081,-2.946102 -1.777623,-3.233988 -6.116464,-3.862468 -8.716367,-1.262564 -1.501406,1.501405 -2.00344,3.666538 -1.31525,5.672299 0.287022,0.836541 0.650683,1.410303 1.317405,2.078522 0.80121,0.803011 1.70441,1.309182 2.71875,1.523643 0.589186,0.124572 1.67063,0.126448 2.26826,0.0039 z"
       id="path4725"
       inkscape:connector-curvature="0"
       transform="scale(0.26458333)" />
    <path
       style="fill:#ffffff;fill-opacity:1;stroke-width:0.0625"
       d="m 18.281566,12.005574 c -0.621073,0.314338 -1.25337,0.643772 -1.812378,1.054566 -0.06028,1.125762 0.105605,2.258904 0.151856,3.385742 0.02061,0.660841 0.150712,1.370104 0.683227,1.820557 0.454949,0.484712 0.983017,0.934299 1.371949,1.462036 -0.339447,0.619418 -0.699883,1.265657 -1.117432,1.830933 -0.951313,-0.217882 -1.885437,-0.588565 -2.869873,-0.628174 -1.322563,0.659113 -2.645114,1.318252 -3.967651,1.977417 -0.06456,0.698505 -0.0092,1.431099 -0.02771,2.1427 1.068271,0.59812 2.206646,1.129457 3.313965,1.678467 0.581708,0.324333 1.276504,0.402136 1.904155,0.164532 0.569203,-0.147281 1.153004,-0.358747 1.717305,-0.45335 0.365728,0.621061 0.720761,1.250385 1.058715,1.888061 -0.662365,0.756871 -1.535266,1.354524 -2.00061,2.267578 -0.09199,1.441701 -0.190519,2.883009 -0.274658,4.325196 0.595439,0.400258 1.247231,0.779704 1.900757,1.098266 1.147998,-0.738738 2.314006,-1.469603 3.409887,-2.288503 0.767314,-0.586283 0.760199,-1.651095 1.04017,-2.491898 -0.02672,-0.540547 0.385522,-0.52453 0.810489,-0.492384 0.51333,-0.0075 1.02666,-0.01508 1.539991,-0.02263 0.262584,0.847115 0.321906,1.77559 0.752563,2.562012 0.581101,0.760155 1.499631,1.157589 2.250993,1.720446 0.53573,0.334287 1.047508,0.743603 1.598007,1.031629 0.622253,-0.383458 1.304051,-0.709946 1.89038,-1.127808 -0.149124,-1.410267 -0.129055,-2.840166 -0.338262,-4.243669 -0.214913,-0.832903 -1.02779,-1.30713 -1.552636,-1.93155 -0.392844,-0.258386 -0.480752,-0.556771 -0.140046,-0.911378 0.277387,-0.447645 0.50535,-0.949513 0.823669,-1.361767 0.935708,0.07899 1.810522,0.660149 2.7677,0.55188 1.0675,-0.282618 2.000136,-0.920006 3.001304,-1.368975 0.368449,-0.205691 0.790201,-0.352975 1.126259,-0.59416 -0.01985,-0.72042 0.03843,-1.463248 -0.02808,-2.170288 -1.332696,-0.648188 -2.659052,-1.315609 -3.995605,-1.952027 -0.976267,0.05662 -1.90014,0.428561 -2.845337,0.627686 -0.439499,-0.593342 -0.763435,-1.260368 -1.140747,-1.893189 0.695585,-0.726274 1.53736,-1.355401 2.029785,-2.248779 0.06583,-1.450162 0.248759,-2.90067 0.224487,-4.352173 -0.271361,-0.283653 -0.702731,-0.418837 -1.03479,-0.640381 -0.285693,-0.117119 -0.55322,-0.374545 -0.856323,-0.408447 -1.240374,0.75972 -2.441272,1.587772 -3.646118,2.399536 -0.460498,0.887535 -0.646953,1.879063 -0.886841,2.840454 -0.742594,-0.01092 -1.485188,-0.02182 -2.227783,-0.03271 -0.266065,-0.874777 -0.37601,-1.821488 -0.819698,-2.630493 -0.648062,-0.667788 -1.506047,-1.090585 -2.253785,-1.635498 -0.510367,-0.305646 -0.993416,-0.712751 -1.53125,-0.949463 z m 5.708741,7.59961 c 1.889117,-0.08648 3.676607,1.273961 4.22086,3.059887 0.674899,1.967195 -0.298663,4.336659 -2.184776,5.258709 -1.649715,0.902435 -3.827527,0.555761 -5.142896,-0.794914 -1.242787,-1.198814 -1.619771,-3.131165 -1.007934,-4.733399 0.647698,-1.636005 2.331487,-2.874758 4.114746,-2.790283 z"
       id="path4749"
       inkscape:connector-curvature="0"
       transform="scale(0.26458333)" />
  </g>
  <g
     inkscape:label="Layer 1"
     inkscape:groupmode="layer"
     id="layer1"
     transform="translate(0,-284.29999)"
     style="display:none">
    <ellipse
       id="path3713-5"
       cx="5.0849614"
       cy="288.45895"
       style="fill:url(#radialGradient4553);fill-opacity:1;stroke-width:0.18102454"
       rx="2.9848309"
       ry="3.0344398" />
  </g>
</svg>
